<?xml version="1.0" encoding="UTF-8"?>
<svg version="1.1" xmlns="http://www.w3.org/2000/svg" width="376" height="98">
<path d="M0 0 C124.08 0 248.16 0 376 0 C376 32.34 376 64.68 376 98 C251.92 98 127.84 98 0 98 C0 65.66 0 33.32 0 0 Z " fill="#FDFDFD" transform="translate(0,0)"/>
<path d="M0 0 C62.7 0 125.4 0 190 0 C190 25.74 190 51.48 190 78 C127.3 78 64.6 78 0 78 C0 65.13 0 52.26 0 39 C6.6 39 13.2 39 20 39 C20 38.34 20 37.68 20 37 C13.4 37 6.8 37 0 37 C0 24.79 0 12.58 0 0 Z " fill="#5372FF" transform="translate(11,10)"/>
<path d="M0 0 C124.08 0 248.16 0 376 0 C376 32.34 376 64.68 376 98 C251.92 98 127.84 98 0 98 C0 65.66 0 33.32 0 0 Z M5.1479187 5.30282432 C3.17098028 8.22568968 3.58493057 11.59502257 3.61181641 15.00390625 C3.60655945 15.81882538 3.60130249 16.63374451 3.59588623 17.47335815 C3.58267099 20.16993314 3.59142957 22.8659189 3.6015625 25.5625 C3.5995422 27.43432733 3.59663113 29.30615389 3.59286499 31.17797852 C3.58843958 35.10212697 3.59487968 39.02607065 3.60888672 42.95019531 C3.62597873 47.98440347 3.61613871 53.01813184 3.59816933 58.05232239 C3.58733736 61.91788356 3.59077513 65.78333068 3.5985527 69.64889526 C3.60055634 71.50528012 3.59808973 73.36167527 3.59111404 75.2180481 C3.58350918 77.81100969 3.59508986 80.40319043 3.61181641 82.99609375 C3.60574371 83.76605682 3.59967102 84.5360199 3.59341431 85.32931519 C3.58984805 89.22640239 3.58984805 89.22640239 5.1479187 92.6970011 C7.8049232 94.56628942 9.78098773 94.37608776 13.01425171 94.37752342 C14.91192008 94.38925829 14.91192008 94.38925829 16.84792519 94.40123022 C18.25978344 94.39474342 19.67164041 94.38797343 21.08349609 94.38095093 C22.5771284 94.38440543 24.07075816 94.3891686 25.56438255 94.39513266 C29.67925129 94.40770088 33.79391234 94.40144598 37.90878201 94.39217401 C42.3423805 94.38540758 46.77594239 94.39585275 51.20953369 94.40411377 C59.89907125 94.4174791 68.58853123 94.41456093 77.27807188 94.40587585 C84.3379553 94.3991107 91.39781691 94.39817751 98.45770264 94.4014473 C99.46111077 94.401907 100.4645189 94.40236669 101.49833333 94.40284032 C103.53650555 94.40379946 105.57467775 94.4047721 107.61284995 94.4057581 C126.74114921 94.41432019 145.8694054 94.40446502 164.99769759 94.388357 C181.42361685 94.37495308 197.84947251 94.37728094 214.27539062 94.39111328 C233.33354299 94.40715464 252.39165757 94.41349614 271.44981575 94.40427649 C273.48064295 94.40332081 275.51147015 94.40237769 277.54229736 94.4014473 C278.54159818 94.40098447 279.540899 94.40052164 280.57048166 94.40004479 C287.62485749 94.39745056 294.67920942 94.4018352 301.73358154 94.40888596 C310.32625156 94.41728513 318.91883933 94.41505425 327.51149988 94.39904372 C331.89866573 94.39113962 336.28569425 94.38810564 340.67285919 94.39799118 C344.68470983 94.40689455 348.69629516 94.4020778 352.70812154 94.38605852 C354.1636584 94.38269213 355.61921742 94.38444619 357.07474017 94.39168589 C359.04506107 94.40073854 361.01544427 94.38970745 362.98574829 94.37752342 C364.08265299 94.37703637 365.17955769 94.37654931 366.30970192 94.37604749 C369.00297145 94.20792344 369.00297145 94.20792344 370.8520813 92.69979441 C372.84329372 89.75128269 372.41491841 86.32624587 372.38818359 82.88842773 C372.39344055 82.06214874 372.39869751 81.23586975 372.40411377 80.384552 C372.41732833 77.65070753 372.40857146 74.91744424 372.3984375 72.18359375 C372.40045763 70.28695056 372.40336855 68.39030813 372.40713501 66.4936676 C372.41156017 62.51824551 372.4051204 58.54302557 372.39111328 54.56762695 C372.37400965 49.46382047 372.38386882 44.36048683 372.40183067 39.25669765 C372.41265339 35.34056513 372.40922934 31.42454536 372.4014473 27.5084095 C372.3994417 25.62607836 372.4019171 23.74373708 372.40888596 21.86141777 C372.41647694 19.23472707 372.40493029 16.60881053 372.38818359 13.98217773 C372.39729263 12.8078141 372.39729263 12.8078141 372.40658569 11.60972595 C372.41368962 9.22750871 372.41368962 9.22750871 372 6 C368.49929433 3.66619622 367.12392596 3.74879441 362.98574829 3.74552441 C361.08807992 3.73677612 361.08807992 3.73677612 359.15207481 3.72785109 C357.74021736 3.73148463 356.32836039 3.73530903 354.91650391 3.73930359 C353.42287314 3.73628491 351.92924391 3.73239686 350.43561745 3.72771102 C346.32079115 3.71738581 342.20605155 3.71962428 338.09121799 3.72389162 C333.65762442 3.72635064 329.22405216 3.717355 324.79046631 3.70985413 C316.10094589 3.6970825 307.41145634 3.69531646 298.72192812 3.69765439 C291.66204769 3.69943482 284.60217666 3.69769384 277.54229736 3.69342995 C276.53888923 3.69283476 275.5354811 3.69223957 274.50166667 3.69162634 C272.46349446 3.69041464 270.42532225 3.68920051 268.38715005 3.68798397 C249.25886196 3.67709912 230.13059149 3.6792755 211.00230241 3.68536881 C193.48667747 3.69053988 175.97110811 3.67927919 158.45549417 3.66027059 C140.48705225 3.64091945 122.51863666 3.63263133 104.55018425 3.63639385 C94.45557705 3.6383099 84.36101718 3.63577905 74.26641846 3.62167931 C65.67375385 3.60979924 57.08116571 3.60832258 48.48850012 3.62046947 C44.10133061 3.62638175 39.7143012 3.62739319 35.32714081 3.61546707 C31.31529639 3.60468758 27.30371038 3.60761594 23.29187846 3.62172876 C21.83633908 3.62439773 20.38077996 3.62194093 18.92525983 3.61399289 C16.95494567 3.60397596 14.98455937 3.6140463 13.01425171 3.62526989 C11.91734701 3.62521487 10.82044231 3.62515986 9.69029808 3.62510318 C6.99649006 3.79161912 6.99649006 3.79161912 5.1479187 5.30282432 Z " fill="#020202" transform="translate(0,0)"/>
<path d="M0 0 C124.08 0 248.16 0 376 0 C376 32.34 376 64.68 376 98 C251.92 98 127.84 98 0 98 C0 65.66 0 33.32 0 0 Z M1 6 C0.50524016 8.98648978 0.31425832 11.40141675 0.35302734 14.3828125 C0.34426575 15.21431824 0.33550415 16.04582397 0.32647705 16.90252686 C0.30451761 19.6438862 0.31902289 22.38362502 0.3359375 25.125 C0.33256836 27.03402007 0.32771492 28.94303805 0.32144165 30.85205078 C0.31407502 34.85014295 0.32476906 38.84767602 0.34814453 42.84570312 C0.37663222 47.96738181 0.36022712 53.08775047 0.33028221 58.2093811 C0.31220356 62.15057219 0.31796986 66.09145332 0.33092117 70.03265381 C0.33425362 71.92087967 0.33017378 73.8091338 0.31852341 75.69732666 C0.30580516 78.33803705 0.32520377 80.9766343 0.35302734 83.6171875 C0.34290619 84.39551941 0.33278503 85.17385132 0.32235718 85.97576904 C0.39619472 89.76352947 0.76521597 91.70469385 3.14680767 94.70020711 C6.52825639 97.42579684 7.99929572 97.62604553 12.28599548 97.6292057 C14.19823709 97.64876381 14.19823709 97.64876381 16.14910984 97.66871703 C17.56156833 97.65790701 18.97402326 97.64662374 20.38647461 97.63491821 C21.88866337 97.64067902 23.39084509 97.64861987 24.89301205 97.65855443 C29.02242652 97.67945704 33.15126439 97.66909738 37.28068113 97.65362334 C41.73339494 97.64232761 46.18600841 97.65976369 50.63870239 97.67352295 C59.3621024 97.69577894 68.08528754 97.69094368 76.80869603 97.67645974 C83.89713002 97.66517678 90.98550371 97.66363252 98.07394409 97.66907883 C99.08205452 97.66984499 100.09016495 97.67061116 101.12882417 97.67140054 C103.17665587 97.67299913 105.22448754 97.6746202 107.2723192 97.6762635 C126.48369682 97.69052791 145.69495523 97.6741174 164.9063133 97.64726166 C181.39756285 97.62492227 197.88863644 97.6288022 214.37988281 97.65185547 C233.5215892 97.67860124 252.66319106 97.68915455 271.80491352 97.67379415 C273.8452943 97.67220137 275.8856751 97.67062952 277.92605591 97.66907883 C279.43199237 97.66792176 279.43199237 97.66792176 280.96835178 97.66674132 C288.04988004 97.66242065 295.1313421 97.66971878 302.21286011 97.68147659 C310.84061232 97.69548654 319.46813702 97.69173339 328.0958631 97.66507287 C332.49957411 97.65191435 336.90290555 97.64681675 341.30661392 97.66331863 C345.33592985 97.67818943 349.36451347 97.67007827 353.39376271 97.64343087 C354.85330833 97.6378336 356.31291549 97.64071433 357.77242172 97.65280981 C359.75290694 97.66796713 361.73356487 97.64946133 363.71400452 97.6292057 C364.81514115 97.62839394 365.91627779 97.62758218 367.0507822 97.62674582 C371.00685228 96.78603125 372.515494 95.1281893 375 92 C375.49459102 88.97971416 375.68564193 86.52497423 375.64697266 83.50952148 C375.65573425 82.66665588 375.66449585 81.82379028 375.67352295 80.9553833 C375.69548211 78.17675904 375.68097841 75.39973341 375.6640625 72.62109375 C375.66743133 70.68725784 375.67228451 68.753424 375.67855835 66.81959534 C375.68592468 62.77023117 375.67523068 58.72141906 375.65185547 54.67211914 C375.62334877 49.48084622 375.63978519 44.29086464 375.66971779 39.09963894 C375.68778095 35.10787718 375.68203757 31.11642192 375.66907883 27.12465096 C375.66574309 25.21047882 375.66983779 23.29627887 375.68147659 21.38213921 C375.69417141 18.70770354 375.67482973 16.03536343 375.64697266 13.36108398 C375.66215439 12.1741671 375.66215439 12.1741671 375.67764282 10.96327209 C375.60717069 7.31296687 375.446927 5.45857412 372.85319233 2.79724556 C369.49027487 0.67892062 367.66161848 0.49811363 363.71400452 0.49384212 C362.43917678 0.48279444 361.16434904 0.47174675 359.85089016 0.46036428 C358.43843312 0.46832138 357.02597819 0.47665906 355.61352539 0.4853363 C354.1113393 0.48001158 352.60915854 0.47294632 351.10698795 0.46428925 C346.97765071 0.44562513 342.84867118 0.45197973 338.71931887 0.46244228 C334.26661311 0.46942359 329.81398164 0.45344455 325.36129761 0.44044495 C316.63792897 0.41878219 307.91469067 0.41893759 299.19130397 0.42707049 C292.10287512 0.43336532 285.01448434 0.43223821 277.92605591 0.42579842 C276.91794548 0.42489676 275.90983505 0.42399511 274.87117583 0.42306613 C272.82334414 0.42121497 270.77551247 0.41935241 268.7276808 0.41747857 C249.5163235 0.40089234 230.3050396 0.40962649 211.0936867 0.42646415 C193.50836617 0.4411637 175.92321645 0.42653056 158.33791792 0.39769398 C140.29028877 0.36831916 122.2427385 0.35732199 104.19508648 0.36687618 C102.1547057 0.36789876 100.1143249 0.36889337 98.07394409 0.3698597 C96.56800763 0.37057428 96.56800763 0.37057428 95.03164822 0.3713033 C87.9501151 0.37346986 80.86865648 0.36365056 73.78713989 0.34908867 C65.15939671 0.33159503 56.5318714 0.33163999 47.9041369 0.35444032 C43.50041977 0.36560929 39.09708693 0.36868528 34.69338608 0.35013962 C30.66408041 0.3333887 26.63549578 0.33961176 22.60623729 0.36435641 C21.1466875 0.36925793 19.68708013 0.36567449 18.22757828 0.35286897 C16.24710429 0.33674299 14.26644111 0.35428997 12.28599548 0.37358761 C11.18485885 0.3738573 10.08372221 0.37412699 8.9492178 0.37440485 C4.99363318 1.21347294 3.48524813 2.87390787 1 6 Z " fill="#FDFDFD" transform="translate(0,0)"/>
<path d="M0 0 C3.75054603 2.20140745 6.20814929 3.8387714 7.78125 8.015625 C8.35990799 12.2165317 8.24850091 15.9089781 6.59375 19.828125 C1.73660546 25.690196 1.73660546 25.690196 -2.96484375 26.47265625 C-8.29251353 26.75866099 -12.19194918 26.70195446 -16.40625 23.203125 C-19.59701159 20.05894387 -20.38642753 17.11639931 -20.53125 12.703125 C-20.463543 8.07648007 -19.38366776 5.513692 -16.21875 2.015625 C-11.12308847 -1.45868968 -5.69379132 -2.52611868 0 0 Z " fill="#0A0A0A" transform="translate(294.21875,34.984375)"/>
<path d="M0 0 C3.5578125 -0.0928125 3.5578125 -0.0928125 7.1875 -0.1875 C8.29387817 -0.22846802 8.29387817 -0.22846802 9.42260742 -0.27026367 C13.83935173 -0.32573392 16.52119467 0.27164994 20 3 C22.32579101 6.48868651 22.41865457 7.89718519 22 12 C21.2265625 13.0209375 21.2265625 13.0209375 20.4375 14.0625 C18.72638328 15.92631804 18.72638328 15.92631804 19.1875 18.4375 C20.00642453 21.02026199 20.93278075 23.50982176 22 26 C19.03 26 16.06 26 13 26 C12.566875 25.030625 12.13375 24.06125 11.6875 23.0625 C10.2985139 19.72268235 10.2985139 19.72268235 7 19 C7 21.31 7 23.62 7 26 C4.69 26 2.38 26 0 26 C0 17.42 0 8.84 0 0 Z " fill="#060606" transform="translate(307,35)"/>
<path d="M0 0 C2.31 0 4.62 0 7 0 C7 1.65 7 3.3 7 5 C15.58 5 24.16 5 33 5 C33 12 33 12 30 21 C21.42 21 12.84 21 4 21 C4 15.06 4 9.12 4 3 C2.35 2.67 0.7 2.34 -1 2 C-0.67 1.34 -0.34 0.68 0 0 Z " fill="#FBFBFF" transform="translate(28,34)"/>
<path d="M0 0 C5.94 0 11.88 0 18 0 C18 1.98 18 3.96 18 6 C14.7 6 11.4 6 8 6 C8 7.32 8 8.64 8 10 C10.97 10 13.94 10 17 10 C17 11.98 17 13.96 17 16 C14.03 16 11.06 16 8 16 C8 17.32 8 18.64 8 20 C11.63 20 15.26 20 19 20 C19 21.98 19 23.96 19 26 C12.73 26 6.46 26 0 26 C0 17.42 0 8.84 0 0 Z " fill="#090909" transform="translate(333,35)"/>
<path d="M0 0 C3.98066095 1.57724302 5.60667274 2.41000911 8 6 C8 6.99 8 7.98 8 9 C5.69 9 3.38 9 1 9 C0.67 8.34 0.34 7.68 0 7 C-1.32 7 -2.64 7 -4 7 C-3.67 7.99 -3.34 8.98 -3 10 C-0.96722527 10.95117358 -0.96722527 10.95117358 1.4375 11.5625 C5.80269058 12.80269058 5.80269058 12.80269058 8 15 C8.68469443 22.07517577 8.68469443 22.07517577 6.3515625 25.2265625 C3.38559375 27.4633562 1.68429416 27.53684294 -2 27.5 C-3.546875 27.51546875 -3.546875 27.51546875 -5.125 27.53125 C-8.67219717 26.87578965 -9.88441673 25.88858485 -12 23 C-12 21.68 -12 20.36 -12 19 C-9.69 19 -7.38 19 -5 19 C-4.67 19.66 -4.34 20.32 -4 21 C-2.68 21 -1.36 21 0 21 C0.33 20.01 0.66 19.02 1 18 C0.39671875 17.90203125 -0.2065625 17.8040625 -0.828125 17.703125 C-4.48323929 17.01926491 -7.39905164 16.3810892 -10.5625 14.375 C-12.65071041 10.92491324 -12.9163292 7.922532 -12 4 C-8.4808348 -0.26565479 -5.35114837 -0.65715857 0 0 Z " fill="#090909" transform="translate(237,34)"/>
<path d="M0 0 C3.0625 1.875 3.0625 1.875 5 5 C5.62426924 8.45020231 5.64648904 11.55205846 5 15 C3.11484777 17.57637471 1.80665143 18.59667428 -1 20 C-5.74275933 20.46650092 -7.92860438 20.66962226 -12 18.125 C-14.81268324 13.73018243 -15.0077149 10.08021562 -14 5 C-10.55625531 -0.55442692 -6.09364124 -1.32230913 0 0 Z " fill="#5573FF" transform="translate(142,38)"/>
<path d="M0 0 C7.92 0 15.84 0 24 0 C24 2.31 24 4.62 24 7 C21.36 7 18.72 7 16 7 C16 13.27 16 19.54 16 26 C13.36 26 10.72 26 8 26 C8 19.73 8 13.46 8 7 C5.36 7 2.72 7 0 7 C0 4.69 0 2.38 0 0 Z " fill="#0D0D0D" transform="translate(248,35)"/>
<path d="M0 0 C4.95088006 1.23772001 6.13413435 3.51941123 8.75 7.5625 C9.16121094 8.17802734 9.57242188 8.79355469 9.99609375 9.42773438 C11.00763511 10.94504641 12.00519789 12.47166086 13 14 C14.29240512 12.22970554 15.58389793 10.45874502 16.875 8.6875 C17.59429687 7.70136719 18.31359375 6.71523438 19.0546875 5.69921875 C20.4055935 3.82476885 21.71835329 1.92247007 23 0 C24.32 0 25.64 0 27 0 C27 8.58 27 17.16 27 26 C25.68 26 24.36 26 23 26 C22.67 20.39 22.34 14.78 22 9 C20.9275 10.65 19.855 12.3 18.75 14 C16.921875 16.8125 16.921875 16.8125 15 19 C13.68 19 12.36 19 11 19 C8.25328484 15.5610233 6.24528609 11.79971492 4 8 C3.67 13.94 3.34 19.88 3 26 C2.01 26 1.02 26 0 26 C0 17.42 0 8.84 0 0 Z " fill="#F1F3FF" transform="translate(160,35)"/>
<path d="M0 0 C4.01193043 2.07775766 6.53881854 4.03426634 8.10546875 8.2734375 C8.83511991 12.65134446 9.13725681 16.52223758 6.828125 20.44140625 C4.77020214 22.88173043 2.97549198 24.83842588 0.10546875 26.2734375 C-4.7524519 26.68021991 -9.3260516 26.89429403 -13.89453125 25.0859375 C-16.98683697 22.28353544 -18.63462098 20.16888071 -19.21484375 15.9375 C-19.41016618 11.60134205 -19.14575841 8.80487957 -17.26953125 4.8359375 C-12.55754036 -0.24805267 -6.78589524 -2.6024258 0 0 Z M-12.95703125 5.1484375 C-15.68562108 9.54938884 -15.90383425 13.2269225 -14.89453125 18.2734375 C-13.10106701 21.56732662 -13.10106701 21.56732662 -9.89453125 23.2734375 C-6.27522945 23.93996239 -3.02408435 23.65986356 0.48046875 22.4609375 C2.90988012 20.68559842 4.00053531 18.92512938 4.4765625 15.96875 C4.59099577 11.53950931 4.54856082 8.98810213 2.16796875 5.1484375 C-3.10069438 1.92272538 -7.68836812 1.92272538 -12.95703125 5.1484375 Z " fill="#EEF1FF" transform="translate(142.89453125,34.7265625)"/>
<path d="M0 0 C3.92906765 1.63048354 6.59909297 3.39863945 9 7 C9 7.99 9 8.98 9 10 C6.13707027 9.59101004 5.18671386 9.22820583 3.3125 6.9375 C0.23329325 4.35762408 -1.94060995 4.36042965 -5.87109375 4.5546875 C-8.25423404 4.88495884 -8.25423404 4.88495884 -10.5625 7.0625 C-12.35257383 10.72047696 -12.50400717 12.96794262 -12 17 C-10.25271222 20.72803465 -10.25271222 20.72803465 -7 23 C-1.16472936 23.34971507 -1.16472936 23.34971507 4 21 C4.66 20.01 5.32 19.02 6 18 C6.99 18 7.98 18 9 18 C8.4568634 21.80195622 6.84334437 23.50130343 4 26 C0.03031423 27.98484289 -4.68401067 27.54178145 -9 27 C-12.47460944 25.35485094 -14.44872058 22.9522099 -16.375 19.625 C-17.53598328 14.74887023 -17.68367912 11.34106288 -15.375 6.8125 C-10.87137449 1.47925927 -7.08950776 -0.99501863 0 0 Z " fill="#EFF2FF" transform="translate(107,34)"/>
<path d="M0 0 C5.28 0 10.56 0 16 0 C16 0.99 16 1.98 16 3 C12.04 3 8.08 3 4 3 C4 5.64 4 8.28 4 11 C7.96 11 11.92 11 16 11 C16 11.99 16 12.98 16 14 C12.04 14 8.08 14 4 14 C4 16.97 4 19.94 4 23 C8.29 23 12.58 23 17 23 C17 23.99 17 24.98 17 26 C11.39 26 5.78 26 0 26 C0 17.42 0 8.84 0 0 Z " fill="#EFF2FF" transform="translate(66,35)"/>
<path d="M0 0 C1.875 1 1.875 1 3 3 C3.36095911 5.80173027 3.22716238 8.13775402 3 11 C0.67471713 13.32528287 0.15334102 13.29511025 -3 13.3125 C-3.70125 13.32925781 -4.4025 13.34601562 -5.125 13.36328125 C-5.74375 13.24339844 -6.3625 13.12351562 -7 13 C-9.46324069 9.30513897 -9.38991688 7.36706908 -9 3 C-6.84332735 -0.71426957 -4.0099826 -0.50124783 0 0 Z " fill="#F3F3F3" transform="translate(291,41)"/>
<path d="M0 0 C1.4540625 0.0309375 1.4540625 0.0309375 2.9375 0.0625 C3.5625 2.4375 3.5625 2.4375 3.9375 5.0625 C3.2775 5.7225 2.6175 6.3825 1.9375 7.0625 C-0.6875 6.6875 -0.6875 6.6875 -3.0625 6.0625 C-3.44468767 4.40635343 -3.77645102 2.73792976 -4.0625 1.0625 C-3.0625 0.0625 -3.0625 0.0625 0 0 Z " fill="#EFF2FF" transform="translate(36.0625,56.9375)"/>
<path d="M0 0 C2.375 -0.125 2.375 -0.125 5 0 C5.66 0.66 6.32 1.32 7 2 C6.625 4.125 6.625 4.125 6 6 C3.625 6.625 3.625 6.625 1 7 C0.34 6.34 -0.32 5.68 -1 5 C-0.625 2.375 -0.625 2.375 0 0 Z " fill="#F2F4FF" transform="translate(44,57)"/>
<path d="M0 0 C1.98 0 3.96 0 6 0 C6.38218767 1.65614657 6.71395102 3.32457024 7 5 C6 6 6 6 2.9375 6.0625 C1.4834375 6.0315625 1.4834375 6.0315625 0 6 C0 4.02 0 2.04 0 0 Z " fill="#F8F8F8" transform="translate(314,41)"/>
<path d="M0 0 C1.98 0.66 3.96 1.32 6 2 C5.67 3.32 5.34 4.64 5 6 C3.35 5.67 1.7 5.34 0 5 C0 4.34 0 3.68 0 3 C-2.31 3 -4.62 3 -7 3 C-7.33 3.66 -7.66 4.32 -8 5 C-8 4.01 -8 3.02 -8 2 C-5.36 2 -2.72 2 0 2 C0 1.34 0 0.68 0 0 Z " fill="#C5C5C5" transform="translate(232,50)"/>
<path d="M0 0 C3.63 0 7.26 0 11 0 C11 0.99 11 1.98 11 3 C7.37 3 3.74 3 0 3 C0 2.01 0 1.02 0 0 Z " fill="#CFD7FF" transform="translate(20,54)"/>
<path d="M0 0 C1.67542976 0.28604898 3.34385343 0.61781233 5 1 C5 1.66 5 2.32 5 3 C7.31 3 9.62 3 12 3 C12 3.33 12 3.66 12 4 C8.37 4.33 4.74 4.66 1 5 C0.34 3.68 -0.32 2.36 -1 1 C-0.67 0.67 -0.34 0.34 0 0 Z " fill="#E8E8E8" transform="translate(233,40)"/>
<path d="M0 0 C2.4375 0.8125 2.4375 0.8125 5 2 C5.33 2.99 5.66 3.98 6 5 C4.02 5 2.04 5 0 5 C0 3.35 0 1.7 0 0 Z " fill="#F7F7F7" transform="translate(0,93)"/>
</svg>
